<?xml version="1.0" encoding="UTF-8" standalone="no"?>

<svg
   xmlns:dc="http://purl.org/dc/elements/1.1/"
   xmlns:cc="http://creativecommons.org/ns#"
   xmlns:rdf="http://www.w3.org/1999/02/22-rdf-syntax-ns#"
   xmlns:svg="http://www.w3.org/2000/svg"
   xmlns="http://www.w3.org/2000/svg"
   xmlns:sodipodi="http://sodipodi.sourceforge.net/DTD/sodipodi-0.dtd"
   xmlns:inkscape="http://www.inkscape.org/namespaces/inkscape"
   version="1.1"
   id="Layer_1"
   x="0px"
   y="0px"
   mw_width="1200px"
   mw_height="1230px"
   width="715px"
   height="610px"
   mw_viewBox="0 0 1200 1230"
   mw_enable-background="new 0 0 1200 1230"
   xml:space="preserve"
   inkscape:version="0.48.1 "
   sodipodi:docname="Blank_Map-Africa.svg">
	
	<path
     style="fill:#cccccc;stroke:#000000;stroke-linecap:round"
     inkscape:connector-curvature="0"
     d="m 269.7101,474.43286 c -3.183,-0.431 -4.305,-4.709 -6.909,-7.177 -5.133,-4.863 -14.828,-1.249 -22.559,3.521 -9.415,-4.705 -10.691,-8.942 -12.426,-12.849 1.884,-5.081 0.601,-11.758 3.156,-17.157 2.281,-4.823 6.25,-9.287 13.211,-13.115 l 8.501,-17.823 c 7.296,-2.412 13.922,-3.33 19.633,-5.342 5.494,-1.936 10.441,-5.102 13.452,-9.146 10.884,-6.722 24.395,-15.341 32.741,-13.208 -0.116,2.738 -0.128,5.455 1.561,7.833 2.83,1.922 2.228,5.108 1.65,8.285 l 16.82,22.614 6.406,2.13 c 0.936,-1.068 5.508,-6.714 7.764,5.734 l 3.814,0.816 -7.359,12.411 -10.426,-0.552 -10.035,7.834 -15.108,-1.794 c -8.685,-0.15 -9.48,1.54 -13.179,2.553 l -33.53,-0.958 2.822,25.39 z"
     id="Burkina_Faso" />
	 
	 <path
     style="fill:#cccccc;stroke:#000000;stroke-linecap:round"
     inkscape:connector-curvature="0"
     d="m 582.9531,608.78886 c -4.477,-1.97 -9.832,-6.433 -12.992,-4.672 l -11.288,-4.027 -22.589,-0.207 h -35.465 l -24.154,0.265 2.451,-18.526 -6.352,-8.205 2.382,-2.911 -1.588,-2.382 -4.234,1.323 c -5.231,-0.649 -7.104,-4.352 -8.331,-8.642 -2.825,-1.062 -6.777,-0.68 -6.755,-5.386 5.941,-10.284 7.232,-24.325 18.829,-30.042 l 0.404,-4.533 16.558,-0.784 c 6.184,3.971 4.209,8.533 14.712,7.201 7.271,-13.125 12.545,-37.237 22.016,-38.272 5.734,-14.116 7.436,-34.146 17.203,-42.347 4.813,-1.72 8.919,-3.762 10.7,-6.859 1.039,-1.809 1.287,-7.657 0.421,-10.331 -0.622,-1.923 -1.819,-0.425 -3.711,-2.924 l -2.842,-10.84 2.301,-1.864 8.746,7.41 c 1.242,6.065 4.265,11.687 3.678,18.209 -0.634,9.487 -4.55,10.844 4.91,21.668 1.611,2.685 1.978,5.524 1.631,8.454 l -17.63,-1.75 c -1.966,4.812 -6.324,15.74 11.047,19.597 l 8.193,24.614 -15.271,25.396 2.129,18.538 c 6.444,11.88 13.91,24.253 24.338,33.865 l 0.553,18.964 z"
     id="Kamerun" />
	 
	 <path
     style="fill:#cccccc;stroke:#000000;stroke-linecap:round"
     inkscape:connector-curvature="0"
     d="m 712.3601,307.75586 -130.179,-64.109 -17.243,5.211 c 1.18,10.185 0.312,18.07 0.495,24.304 0.268,9.14 6.628,15.548 15.348,18.638 l -3.86,9.394 -5.548,50.3 -27.169,29.898 c -0.862,1.696 -1.342,3.393 -1.24,5.089 -0.86,1.945 -1.965,2.793 -3.144,3.302 -1.897,1.178 -0.961,3.169 -1.181,4.648 -1.58,10.598 20.577,26.294 20.577,26.294 1.141,4.788 2.828,9.041 3.674,14.095 0.912,5.449 -1.756,12.025 -0.988,16.747 1.115,6.854 8.721,7.542 7.681,18.005 l -17.444,-1.605 c -5.063,10.107 -1.52,16.693 10.913,19.644 l 8.212,24.515 c 13.192,-3.011 22.482,-1.409 39.717,-9.197 l 15.68,-1.553 c 2.892,-4.933 9.013,-7.559 6.914,-16.055 l 21.697,-2.369 c 1.696,-1.58 2.51,-4.042 5.265,-4.563 4.253,-0.132 5.497,-2.896 6.635,-5.753 1.982,-4.697 6.979,-6.38 10.734,-9.306 0.677,-15.492 12.387,-11.057 19.523,-13.988 l -0.854,-5.376 c -4.084,-4.453 -7.606,-9.507 -8.884,-23.677 l -7.613,1.431 -0.168,-6.887 c 2.331,-2.5 4.005,-8.431 3.408,-12.646 l 3.545,-1.663 -0.873,-8.954 10.48,-13.396 -0.325,-6.563 18.064,-0.95 -1.849,-62.905 z"
     id="Tschad" />
	 
	 <path
     style="fill:#cccccc;stroke:#000000;stroke-linecap:round"
     inkscape:connector-curvature="0"
     d="m 41.5001,395.95586 h 18.351 c 3.958,-5.287 9.788,-3.556 16.43,1.217 l 10.595,0.785 2.336,3.003 -7.674,2.669 c -5.252,-1.122 -9.991,-3.143 -14.347,-5.835 -3.075,1.823 -6.592,2.912 -11.01,2.498 l -2.002,3.337 -15.945,0.667 3.266,-8.341 z"
     id="Gambia" />
	 
	 <path
     style="fill:#cccccc;stroke:#000000;stroke-linecap:round"
     inkscape:connector-curvature="0"
     d="m 63.6491,444.31786 c -0.577,1.798 -0.43,2.689 1.907,2.693 0.944,1.132 4.272,-6.859 3.76,1.205 l 2.974,0.318 c -1.008,4.479 2.043,9.98 4.953,10.973 3.746,1.278 5.817,5.614 7.876,7.528 l 5.083,9.354 c 3.5,2.385 8.323,0.651 15.854,-9.505 -0.82,-3.385 3.856,-5.188 17.836,-4.312 11.451,8.251 14.884,17.877 10.614,28.823 5.122,-1.237 7.987,-4.729 16.526,-2.548 4.257,5.364 6.892,11.284 3.352,19.321 4.715,1.761 6.416,6.938 12.999,-1.782 -0.449,-1.999 1.177,-2.72 3.247,-1.185 1.253,0.93 3.347,-0.481 5.323,0.009 l 3.478,-8.96 -4.263,-1.721 0.813,-4.708 8.714,1.772 c -0.667,-3.212 -5.009,-7.391 -1.792,-9.581 1.441,-1.483 0.775,-2.644 -0.688,-3.681 l 0.181,-4.106 c -8.45,-1.011 -3.627,-10.36 -0.711,-15.099 l -5.179,-4.707 -0.595,-10.358 -4.27,3.148 -1.598,-2.386 5.703,-5.217 -7.7,-5.851 c 1.272,-4.097 -0.444,-9.01 -1.84,-14.121 l -5.422,-1.179 c 0.084,2.334 -0.725,4.101 -3.106,4.866 -2.033,-0.611 -3.279,0.689 -3.74,3.896 l -9.609,-3.977 -7.629,5.531 c 0.967,-2.479 -1.51,-3.95 -3.068,-5.798 l -4.207,2.826 c -3.287,1.106 -3.699,-0.661 -3.66,-2.881 0.676,-0.721 1.521,-1.273 1.779,-2.411 -11.867,-1.843 -24.297,-1.103 -35.146,-7.634 l -3.402,-0.019 -1.478,18.409 -9.264,0.246 c -9.053,3.294 -13.51,11.725 -14.605,12.809 z"
     id="Guinea" />
	 
	 <path
     style="fill:#cccccc;stroke:#000000;stroke-linecap:round"
     inkscape:connector-curvature="0"
     d="m 248.8661,206.17086 -25.483,0.686 1.204,147.051 6.721,2.374 -4.711,14.377 -75.104,-4.249 -8.644,6.059 -4.723,-1.744 -3.271,-9.709 -4.294,-1.147 c -8.457,18.489 -9.755,16.338 -12.896,19.501 0.513,1.891 -0.72,3.695 -0.112,5.427 1.903,5.419 3.097,10.916 0.232,13.26 3.912,3.483 8.96,6.256 10.411,11.276 0.279,6.403 -0.07,11.342 -1.793,13.076 -1.707,1.71 0.32,5.697 3.869,2.711 l 3.451,-2.097 c 1.134,1.807 3.636,2.794 3.271,5.502 l 7.605,-5.2 9.287,3.858 c 0.943,-1.423 -0.24,-3.556 3.372,-4.089 1.897,0.052 3.231,-1.304 3.791,-4.596 l 5.098,1.237 c 1.372,4.802 3.044,9.647 2.163,14.127 l 7.523,5.681 -5.746,5.26 1.591,2.402 4.191,-2.794 0.622,10.063 5.294,4.864 c 2.171,-2.154 5.636,-4.87 8.257,-3.509 2.472,1.284 3.623,6.31 5.954,4.74 2.438,-1.641 2.896,-3.176 6.673,-3.171 2.846,0.004 -2.439,-4.915 1.104,-4.813 1.646,0.048 4.218,-1.891 7.063,-1.143 2.728,0.717 -0.664,10.876 1.335,8.695 4.956,-5.407 14.831,-3.313 15.785,-2.104 2.765,-9.899 -2.639,-19.029 16.328,-30.458 l 8.371,-17.632 c 11.159,-4.682 23.137,-2.551 33.397,-14.727 12.899,-8.617 25.79,-15.097 32.756,-13.165 l 13.022,0.014 7.318,-6.245 35.029,0.438 c 0.888,-1.72 1.376,-2.984 6.215,-5.363 0.038,-4.229 3.831,-4.462 6.467,-5.794 l 1.375,-51.91 -13.15,1.896 c -5.193,-3.376 -0.825,-4.452 -0.777,-11.961 -2.961,-6.667 -6.726,-7.67 -10.424,-7.013 -3.248,0.578 -4.71,-4.028 -6.414,-3.681 -2.935,0.598 -6.149,-2.219 -8.096,-6.363 -0.661,-1.409 -2.479,-2.051 -3.708,-2.896 -2.732,-1.876 -5.224,-3.318 -4.517,-6.244 0.004,0.001 -62.547,-47.775 -92.282,-70.758 z"
     id="Mali" />
	 
	 <path
     style="fill:#cccccc;stroke:#000000;stroke-linecap:round"
     inkscape:connector-curvature="0"
     d="m 116.5021,262.64086 c 2.054,-14.697 -7.082,-35.352 21.465,-35.941 l 5.99,-44.427 50.916,4.492 2.756,-19.965 51.315,39.404 -25.56,0.621 1.296,147.157 6.469,2.306 -4.36,14.294 -75.333,-4.149 -8.587,6.072 -4.635,-1.521 -3.275,-9.978 -4.555,-1.127 c 0,0 -8.313,20.509 -13.605,18.435 0,0 -2.354,-2.554 -5.016,-5.306 -2.346,-2.423 -4.902,-4.824 -6.715,-8.243 -2.521,-4.755 -4.266,-12.389 -7.739,-11.843 -7.393,1.161 -13.026,-8.643 -13.026,-8.643 0,0 -8.613,-2.39 -14.787,-0.675 -7.98,2.216 -16.994,-0.084 -18.603,0.96 l 7.325,-20.35 0.747,-23.721 -4.461,-7.126 c 2.385,-4.217 9.672,-8.105 4.909,-20.73 -0.545,-1.444 -3.139,-0.666 -3.139,-0.666 l -3.076,-9.281 3.78,-3.79 59.504,3.741 z"
     id="Mauretanien" />
	 
	 <path
     style="fill:#cccccc;stroke:#000000;stroke-linecap:round"
     inkscape:connector-curvature="0"
     d="m 388.2081,313.34086 -1.434,51.949 c -2.297,1.334 -5.49,-0.026 -6.364,5.577 -2.554,1.481 -5.701,2.519 -6.267,5.491 l -35.108,-0.339 -7.134,5.994 -13.282,0.072 c -0.384,2.86 -0.315,6.438 1.945,8.208 2.006,1.57 1.711,4.877 1.202,7.79 l 16.797,22.41 6.094,2.277 c 3.378,-2.964 6.456,-3.834 7.987,6.129 l 20.803,2.952 c 1.451,-3.325 1.102,-7.938 4.871,-9.606 5.659,-3.2 4.734,-8.795 6.753,-13.319 4.62,-2.203 1.666,-5.336 26.079,-5.108 6.313,3.969 12.406,5.297 19.055,13.277 l 4.896,0.2 c 0.14,-1.674 5.078,-5.114 8.097,-5.688 3.271,-1.779 9.086,1.317 16.836,8.123 l 13.807,1.236 13.259,-9.509 23.18,-0.595 c 3.496,1.366 6.086,4.492 11.245,3.199 3.706,-4.172 10.795,-8.154 18.938,-11.588 -1.264,-3.69 -2.686,-7.293 -1.507,-12.03 1.986,-1.67 4.428,-1.934 4.668,-8.146 l 28.005,-31.077 5.194,-49.556 3.955,-9.965 c -8.006,-3.278 -13.489,-6.385 -15.246,-17.437 -0.957,-6.02 0.408,-13.79 -0.187,-25.03 l -4.986,0.855 c -2.737,-3.222 -5.388,-6.675 -8.889,-7.86 l -39.266,-1.43 -99.483,65.587 -24.513,6.957 z"
     id="Niger" />
	 
	 <path
     style="fill:#cccccc;stroke:#000000;stroke-linecap:round"
     inkscape:connector-curvature="0"
     d="m 454.0041,555.60586 -3.364,-0.157 -1.104,5.889 c -5.767,0.14 -11.533,-0.47 -17.3,-2.576 -13.774,8.575 -24.685,7.173 -30.314,-12.618 -4.28,-11.047 -11.207,-14.633 -18.543,-17.067 l -23.968,0.138 1.048,-38.254 c 3.803,-4.84 6.17,-11.596 8.306,-18.659 6.409,-1.577 5.041,-7.212 5.334,-11.98 6.406,-4.243 2.207,-10.9 -0.431,-15.36 l 0.414,-12.444 c 0.545,-3.528 -0.257,-7.345 4.804,-10.585 1.97,-2.422 3.939,-1.242 5.91,-13.086 3.512,-2.699 7.221,-5.355 26.135,-4.754 6.611,3.457 15.028,6.263 19.617,13.386 l 4.257,-0.204 c 2.747,-1.935 3.596,-5.347 8.59,-5.533 2.848,-0.061 3.016,-2.8 16.529,7.806 l 14.088,1.316 13.084,-9.431 23.453,-0.458 c 3.422,1.426 6.226,4.552 10.661,3.19 5.862,-5.837 12.974,-8.855 19.66,-11.672 2.672,4.284 6.392,8.471 9.727,11.143 l -2.226,1.778 2.819,11.346 c 1.311,0.991 3.695,1.338 3.756,3.08 2.518,11.128 -3.719,14.571 -11.096,17.028 -9.394,7.31 -11.754,27.367 -17.151,41.92 -10.494,3.1 -13.989,22.506 -22.014,38.463 -7.741,1.511 -9.7,-2.258 -14.558,-7.5 l -16.867,1.093 -0.441,4.511 c -10.771,5.625 -13.25,18.379 -18.815,30.251 z"
     id="Nigeria" />
	 
	 <path
     style="fill:#cccccc;stroke:#000000;stroke-linecap:round"
     inkscape:connector-curvature="0"
     d="m 51.1511,344.04486 c -2.99,5.14 -5.022,7.822 -5.108,11.995 -0.198,9.537 -9.717,12.576 -14.48,19.51 4.433,6.461 9.258,12.808 10.009,20.352 h 18.351 c 3.959,-5.286 9.789,-3.556 16.43,1.217 l 10.596,0.785 2.335,3.003 -7.674,2.669 c -5.252,-1.122 -9.991,-3.143 -14.347,-5.834 -3.075,1.823 -6.592,2.912 -11.01,2.498 l -2.002,3.336 -16.015,0.667 c -0.944,4.338 -1.815,8.675 -1.001,13.013 3.854,-0.356 7.607,0.209 11.667,-1.992 5.472,1.401 10.667,0.176 15.69,-2.68 l 27.676,0.331 c 10.401,5.949 23.374,6.562 35.384,7.344 0.566,-6.269 4.069,-12.503 -9.586,-22.021 2.096,-2.698 1.312,-8.905 -0.522,-13.389 -1.038,-2.536 0.952,-3.334 0.009,-6.041 -1.297,-0.723 -2.86,-2.773 -5.046,-4.835 -2.444,-2.308 -7.406,-8.937 -7.406,-8.937 -2.904,-8.713 -6.65,-12.277 -6.65,-12.277 -8.915,1.459 -14.421,-8.576 -14.421,-8.576 -7.61,-2.056 -11.59,-0.542 -14.902,-0.368 -8.648,0.453 -10.408,1.52 -17.977,0.23 z"
     id="Senegal" />
	 
</svg>
